{"title":"Dogma 1999 BDRip 720p Multilanguage PT-BR","uid":14844798,"size":5862910169,"categoryP":"video","categoryS":"hd___movies","magnet":"?xt=urn:btih:88c50c41677a8d1eee2f1c751d9ee5603b945e01&amp;dn=Dogma+1999+BDRip+720p+Multilanguage+PT-BR&amp;tr=udp%3A%2F%2Ftracker.leechers-paradise.org%3A6969&amp;tr=udp%3A%2F%2Fzer0day.ch%3A1337&amp;tr=udp%3A%2F%2Fopen.demonii.com%3A1337&amp;tr=udp%3A%2F%2Ftracker.coppersurfer.tk%3A6969&amp;tr=udp%3A%2F%2Fexodus.desync.com%3A6969","seeders":0,"leechers":1,"uploader":null,"files":1,"time":1465413826,"description":"Audio: English\r\nLegendas/subtitles (MKV track): Português, Chinese, English, Czech, Danish, Dutch, Finnish, French, Slovenian, Spanish, Swedish\r\n\r\n=======================================\r\n\r\nAn abortion clinic worker with a special heritage is called upon to save the existence of humanity from being negated by two renegade angels trying to exploit a loop-hole and reenter Heaven. \r\n\r\n========================================\r\n\r\nVideo\r\nID                             : 1\r\nFormat                         : AVC\r\nFormat/Info                    : Advanced Video Codec\r\nFormat profile                 :   \r\nFormat settings, CABAC         : Yes\r\nFormat settings, ReFrames      : 12 frames\r\nCodec ID                       : V_MPEG4/ISO/AVC\r\nDuration                       : 2h 8mn\r\nBit rate                       : 4 953 Kbps\r\nWidth                          : 1 280 pixels\r\nHeight                         : 534 pixels\r\nDisplay aspect ratio           : 2.40:1\r\nFrame rate mode                : Constant\r\nFrame rate                     : 23.976 fps\r\nColor space                    : YUV\r\nChroma subsampling             : 4:2:0\r\nBit depth                      : 8 bits\r\nScan type                      : Progressive\r\nBits/(Pixel*Frame)             : 0.302\r\nStream size                    : 4.43 GiB (81%)\r\n\r\nAudio #1\r\nID                             : 2\r\nFormat                         : AC-3\r\nFormat/Info                    : Audio Coding 3\r\nMode extension                 : CM (complete main)\r\nFormat settings, Endianness    : Big\r\nCodec ID                       : A_AC3\r\nDuration                       : 2h 8mn\r\nBit rate mode                  : Constant\r\nBit rate                       : 640 Kbps\r\nChannel(s)                     : 6 channels\r\nChannel positions              : Front: L C R, Side: L R, LFE\r\nSampling rate                  : 48.0 KHz\r\nBit depth                      : 16 bits\r\nCompression mode               : Lossy\r\nStream size                    : 587 MiB (10%)\r\nLanguage                       : English\r\nDefault                        : Yes\r\nForced                         : No\r\n\r\nAudio #2\r\nID                             : 3\r\nFormat                         : AC-3\r\nFormat/Info                    : Audio Coding 3\r\nFormat profile                 : Dolby Digital\r\nMode extension                 : CM (complete main)\r\nFormat settings, Endianness    : Big\r\nCodec ID                       : A_AC3\r\nDuration                       : 2h 8mn\r\nBit rate mode                  : Constant\r\nBit rate                       : 192 Kbps\r\nChannel(s)                     : 2 channels\r\nChannel positions              : Front: L R\r\nSampling rate                  : 48.0 KHz\r\nBit depth                      : 16 bits\r\nCompression mode               : Lossy\r\nStream size                    : 176 MiB (3%)\r\nTitle                          : Writer &amp; Director's Commentary Tack\r\nDefault                        : No\r\nForced                         : No\r\n\r\nAudio #3\r\nID                             : 4\r\nFormat                         : AC-3\r\nFormat/Info                    : Audio Coding 3\r\nFormat profile                 : Dolby Digital\r\nMode extension                 : CM (complete main)\r\nFormat settings, Endianness    : Big\r\nCodec ID                       : A_AC3\r\nDuration                       : 2h 8mn\r\nBit rate mode                  : Constant\r\nBit rate                       : 192 Kbps\r\nChannel(s)                     : 2 channels\r\nChannel positions              : Front: L R\r\nSampling rate                  : 48.0 KHz\r\nBit depth                      : 16 bits\r\nCompression mode               : Lossy\r\nStream size                    : 176 MiB (3%)\r\nTitle                          : Technical Commentary Track\r\nDefault                        : No\r\nForced                         : No\r\n\r\n\r\nMenu\r\n00:00:00.000                   : en:Opening Title\r\n00:06:49.951                   : en:Loki &amp; Bartleby\r\n00:12:38.632                   : en:Bethany\r\n00:17:56.492                   : en:Azrael\r\n00:24:30.260                   : en:Jay &amp; Silent Bob\r\n00:36:39.238                   : en:Goigothan Demon\r\n00:41:18.184                   : en:CA Warning\r\n00:46:53.227                   : en:Bethany &amp; Barry\r\n00:54:03.990                   : en:Epiphany\r\n01:01:49.580                   : en:Jesus' Grandniece\r\n01:11:47.219                   : en:Foul Play Afoot\r\n01:17:45.869                   : en:Holy Bartender\r\n01:23:53.653                   : en:Azrael's Grudge3\r\n01:33:36.569                   : en:&quot;Take a Shot&quot;\r\n01:40:33.027                   : en:God Revealed\r\n01:50:03.513                   : en:Miracles (End Credits)","torrent":{"xt":"urn:btih:88c50c41677a8d1eee2f1c751d9ee5603b945e01","amp;dn":"Dogma+1999+BDRip+720p+Multilanguage+PT-BR","amp;tr":["udp%3A%2F%2Ftracker.leechers-paradise.org%3A6969","udp%3A%2F%2Fzer0day.ch%3A1337","udp%3A%2F%2Fopen.demonii.com%3A1337","udp%3A%2F%2Ftracker.coppersurfer.tk%3A6969","udp%3A%2F%2Fexodus.desync.com%3A6969"],"infoHash":"88c50c41677a8d1eee2f1c751d9ee5603b945e01","infoHashBuffer":{"type":"Buffer","data":[136,197,12,65,103,122,141,30,238,47,28,117,29,158,229,96,59,148,94,1]},"announce":[],"urlList":[]}}